
<svg version="1.1" id="Capa_1" xmlns="http://www.w3.org/2000/svg" xmlns:xlink="http://www.w3.org/1999/xlink" x="0px" y="0px"
	 viewBox="0 0 225.721 225.721" style="enable-background:new 0 0 225.721 225.721;" xml:space="preserve">
<g>
	<path d="M170.131,15.134c-0.62-1.589-1.859-2.856-3.434-3.509l-17.971-7.443c-1.576-0.653-3.349-0.633-4.91,0.054
		c-1.561,0.687-2.771,1.981-3.356,3.583l-26.926,73.979L85.259,4.112c-0.581-1.602-1.794-2.897-3.354-3.583
		c-1.559-0.686-3.334-0.705-4.909-0.054l-17.97,7.443c-1.576,0.652-2.816,1.92-3.435,3.509c-0.618,1.59-0.56,3.362,0.161,4.907
		l45.836,98.292L64.205,217.332c-1.146,3.145,0.39,6.632,3.482,7.912c0.781,0.323,1.59,0.477,2.389,0.477
		c2.359,0,4.609-1.344,5.665-3.609l37.983-81.455l36.256,77.748c1.057,2.266,3.307,3.609,5.668,3.609
		c0.798,0,1.607-0.153,2.389-0.477c3.089-1.28,4.624-4.769,3.48-7.912l-35.867-98.543l44.318-95.041
		C170.69,18.495,170.748,16.723,170.131,15.134z M124.909,87.095l25.065-68.866l5.906,2.447L124.909,87.095z M69.84,16.968
		l5.908-2.446l25.063,68.866L69.84,16.968z"/>
</g>
<g>
</g>
<g>
</g>
<g>
</g>
<g>
</g>
<g>
</g>
<g>
</g>
<g>
</g>
<g>
</g>
<g>
</g>
<g>
</g>
<g>
</g>
<g>
</g>
<g>
</g>
<g>
</g>
<g>
</g>
</svg>
