<?xml version="1.0" encoding="iso-8859-1"?>
<!-- Generator: Adobe Illustrator 19.0.0, SVG Export Plug-In . SVG Version: 6.00 Build 0)  -->
<svg version="1.1" id="Layer_1" xmlns="http://www.w3.org/2000/svg" xmlns:xlink="http://www.w3.org/1999/xlink" x="0px" y="0px"
	 viewBox="0 0 511.997 511.997" style="enable-background:new 0 0 511.997 511.997;" xml:space="preserve">
<g>
	<g>
		<path d="M364.346,11.195c-0.181-0.891-0.445-1.767-0.793-2.602c-0.348-0.849-0.779-1.656-1.28-2.407
			c-0.501-0.765-1.085-1.475-1.726-2.115c-0.64-0.64-1.35-1.225-2.115-1.726c-0.751-0.501-1.573-0.932-2.407-1.28
			c-0.835-0.348-1.712-0.612-2.602-0.793c-1.795-0.362-3.646-0.362-5.441,0c-0.877,0.181-1.753,0.445-2.602,0.793
			c-0.835,0.348-1.642,0.779-2.393,1.28c-0.765,0.501-1.475,1.085-2.115,1.726s-1.225,1.35-1.739,2.115
			c-0.501,0.751-0.932,1.559-1.28,2.407c-0.348,0.835-0.612,1.712-0.793,2.602c-0.181,0.891-0.264,1.809-0.264,2.714
			c0,0.904,0.083,1.823,0.264,2.727c0.181,0.877,0.445,1.753,0.793,2.602c0.348,0.835,0.779,1.642,1.28,2.393
			c0.515,0.765,1.099,1.475,1.74,2.115c0.64,0.64,1.35,1.225,2.115,1.739c0.751,0.501,1.559,0.932,2.393,1.28
			c0.849,0.348,1.726,0.612,2.602,0.793c0.904,0.181,1.823,0.264,2.727,0.264c0.904,0,1.823-0.083,2.714-0.264
			c0.891-0.181,1.767-0.445,2.602-0.793c0.835-0.348,1.656-0.779,2.407-1.28c0.765-0.515,1.475-1.099,2.115-1.739
			c2.588-2.588,4.077-6.179,4.077-9.838C364.625,13.004,364.527,12.086,364.346,11.195z"/>
	</g>
</g>
<g>
	<g>
		<path d="M341.329,310.964c-0.181-0.891-0.445-1.767-0.793-2.602c-0.348-0.849-0.779-1.656-1.28-2.407
			c-0.515-0.765-1.099-1.475-1.739-2.115c-0.64-0.64-1.35-1.225-2.115-1.726c-0.751-0.501-1.559-0.932-2.393-1.28
			c-0.849-0.348-1.712-0.612-2.602-0.793c-1.795-0.362-3.646-0.362-5.441,0c-0.891,0.181-1.767,0.445-2.602,0.793
			c-0.835,0.348-1.642,0.779-2.407,1.28c-0.751,0.501-1.475,1.085-2.115,1.726s-1.225,1.35-1.726,2.115
			c-0.501,0.751-0.932,1.559-1.28,2.407c-0.348,0.835-0.612,1.712-0.793,2.602c-0.181,0.891-0.278,1.809-0.278,2.714
			c0,0.904,0.097,1.823,0.278,2.727c0.182,0.877,0.445,1.753,0.793,2.602c0.348,0.835,0.779,1.642,1.28,2.393
			c0.501,0.765,1.085,1.475,1.726,2.115s1.364,1.225,2.115,1.739c0.765,0.501,1.572,0.932,2.407,1.28
			c0.835,0.348,1.712,0.612,2.602,0.793c0.904,0.181,1.809,0.264,2.714,0.264c0.918,0,1.823-0.083,2.727-0.264
			c0.891-0.181,1.753-0.445,2.602-0.793c0.835-0.348,1.642-0.779,2.393-1.28c0.765-0.515,1.475-1.099,2.115-1.739
			c0.64-0.64,1.225-1.35,1.739-2.115c0.501-0.751,0.932-1.559,1.28-2.393c0.348-0.849,0.612-1.726,0.793-2.602
			c0.181-0.905,0.264-1.823,0.264-2.727S341.509,311.855,341.329,310.964z"/>
	</g>
</g>
<g>
	<g>
		<path d="M446.797,254.373c0.018-0.707,0.06-1.4,0.06-2.117c0-33.919-19.013-65.014-48.856-80.613
			c-2.919-5.582-6.382-10.783-10.3-15.552l65.474-65.474c5.435-5.431,5.435-14.243,0.001-19.678c-5.434-5.434-14.245-5.434-19.681,0
			l-66.578,66.578c-11.068-7.194-23.687-11.995-37.024-13.856l21.225-65.747c2.36-7.314-1.653-15.157-8.967-17.518
			c-7.314-2.361-15.157,1.653-17.518,8.967l-19.908,61.664c-16.85-16.87-39.943-26.751-64.365-26.751
			c-29.676,0-57.398,14.574-74.333,38.559c-0.907-0.029-1.808-0.043-2.701-0.043c-33.922,0-65.014,19.01-80.61,48.853
			c-29.843,15.598-48.853,46.691-48.853,80.612c0,0.717,0.043,1.41,0.06,2.117c-1.947,0.788-3.718,2-5.15,3.599
			c-2.64,2.947-3.901,6.878-3.466,10.811c5.807,52.613,30.748,101.19,70.229,136.783c17.521,15.796,37.303,28.462,58.536,37.696
			c-11.089,15.81-17.662,34.401-18.835,53.988c-0.23,3.828,1.131,7.581,3.761,10.373s6.294,4.375,10.129,4.375h182.465
			c3.835,0,7.5-1.582,10.129-4.375c2.629-2.793,3.991-6.544,3.761-10.373c-1.173-19.588-7.745-38.179-18.835-53.988
			c21.231-9.234,41.013-21.899,58.536-37.696c39.481-35.593,64.422-84.171,70.229-136.783c0.434-3.933-0.827-7.864-3.466-10.811
			C450.516,256.372,448.744,255.16,446.797,254.373z M367.889,175.908c2.739,3.646,5.107,7.62,7.033,11.88
			c1.394,3.084,3.864,5.552,6.949,6.947c22.573,10.2,37.157,32.78,37.157,57.526c0,0.365-0.003,0.725-0.01,1.084H290.453
			L367.889,175.908z M98.854,194.735c3.086-1.394,5.558-3.866,6.952-6.952c10.197-22.572,32.775-37.157,57.523-37.157
			c2.616,0,5.36,0.184,8.156,0.547c5.616,0.722,11.116-2.022,13.904-6.952c11.198-19.807,32.263-32.112,54.974-32.112
			c22.702,0,43.762,12.304,54.96,32.112c2.787,4.932,8.294,7.676,13.904,6.952c2.796-0.363,5.543-0.547,8.167-0.547
			c10.367,0,20.35,2.57,29.209,7.208l-95.51,95.51H61.707c-0.006-0.359-0.01-0.721-0.01-1.084
			C61.698,227.513,76.283,204.933,98.854,194.735z M165.342,484.169c2.953-11.429,8.494-22.035,16.271-31.06
			c1.173,0.33,2.356,0.619,3.535,0.93c0.511,0.135,1.019,0.271,1.531,0.402c1.333,0.341,2.67,0.671,4.009,0.985
			c0.562,0.132,1.127,0.255,1.692,0.383c2.214,0.502,4.436,0.969,6.666,1.401c0.796,0.154,1.593,0.31,2.391,0.455
			c1.166,0.212,2.334,0.416,3.504,0.609c1.108,0.184,2.218,0.351,3.33,0.516c1.46,0.217,2.922,0.422,4.388,0.609
			c1.321,0.17,2.643,0.331,3.967,0.476c0.872,0.096,1.746,0.188,2.62,0.273c1.828,0.178,3.661,0.338,5.497,0.47
			c0.497,0.035,0.994,0.068,1.49,0.1c1.899,0.124,3.802,0.218,5.708,0.292c0.609,0.024,1.22,0.045,1.831,0.063
			c2.193,0.067,4.389,0.113,6.59,0.113c2.201,0,4.397-0.046,6.59-0.113c0.611-0.018,1.22-0.04,1.831-0.063
			c1.906-0.074,3.81-0.168,5.708-0.292c0.497-0.032,0.994-0.064,1.49-0.1c1.837-0.132,3.668-0.291,5.497-0.47
			c0.874-0.085,1.748-0.177,2.62-0.273c1.325-0.146,2.647-0.306,3.967-0.476c1.465-0.188,2.928-0.392,4.388-0.609
			c1.112-0.166,2.222-0.334,3.33-0.516c1.17-0.193,2.338-0.398,3.504-0.609c0.799-0.146,1.595-0.301,2.391-0.455
			c2.229-0.431,4.452-0.899,6.666-1.401c0.564-0.128,1.129-0.25,1.692-0.383c1.34-0.315,2.676-0.644,4.009-0.985
			c0.511-0.131,1.02-0.269,1.531-0.402c1.18-0.31,2.363-0.598,3.536-0.93c7.776,9.024,13.319,19.631,16.271,31.06H165.342z
			 M299.178,424.02c-0.081,0.025-0.164,0.036-0.245,0.063c-11.638,3.8-23.605,6.435-35.77,7.901
			c-0.248,0.029-0.494,0.061-0.742,0.09c-2.197,0.256-4.401,0.47-6.611,0.65c-0.352,0.028-0.704,0.056-1.056,0.082
			c-2.188,0.166-4.381,0.296-6.579,0.385c-0.308,0.013-0.615,0.02-0.923,0.031c-2.292,0.082-4.588,0.135-6.89,0.135
			s-4.598-0.051-6.89-0.135c-0.307-0.011-0.615-0.018-0.923-0.031c-2.199-0.089-4.39-0.221-6.579-0.385
			c-0.352-0.026-0.704-0.053-1.056-0.082c-2.21-0.18-4.414-0.394-6.611-0.65c-0.248-0.029-0.494-0.061-0.742-0.09
			c-12.165-1.467-24.131-4.101-35.77-7.901c-0.081-0.026-0.163-0.036-0.244-0.061c-48.457-15.836-88.481-50.757-110.725-96.424
			h215.113c7.686,0,13.916-6.23,13.916-13.916s-6.23-13.916-13.916-13.916H59.932c-1.834-6.067-3.383-12.267-4.612-18.591h201.523
			c0.004,0,0.01,0,0.014,0c0.004,0,0.01,0,0.014,0h168.536C412.196,349.189,363.003,403.161,299.178,424.02z"/>
	</g>
</g>
<g>
	<g>
		<path d="M486.496,48.544c-0.181-0.891-0.445-1.767-0.793-2.602c-0.348-0.849-0.779-1.656-1.28-2.407
			c-0.501-0.765-1.085-1.475-1.726-2.115c-0.64-0.64-1.35-1.225-2.115-1.726c-0.751-0.501-1.559-0.932-2.407-1.28
			c-0.835-0.348-1.712-0.612-2.602-0.793c-1.795-0.362-3.646-0.362-5.441,0c-0.877,0.181-1.753,0.445-2.602,0.793
			c-0.835,0.348-1.642,0.779-2.393,1.28c-0.765,0.501-1.475,1.085-2.115,1.726c-0.64,0.64-1.225,1.35-1.739,2.115
			c-0.501,0.751-0.932,1.559-1.28,2.407c-0.348,0.835-0.612,1.712-0.793,2.602c-0.181,0.891-0.264,1.809-0.264,2.714
			c0,0.904,0.083,1.823,0.264,2.727c0.181,0.877,0.445,1.753,0.793,2.602c0.348,0.835,0.779,1.642,1.28,2.393
			c0.515,0.765,1.099,1.475,1.739,2.115c0.64,0.64,1.35,1.225,2.115,1.74c0.751,0.501,1.559,0.932,2.393,1.28
			c0.849,0.348,1.726,0.612,2.602,0.793c0.905,0.181,1.823,0.264,2.727,0.264c0.904,0,1.823-0.083,2.714-0.264
			c0.891-0.181,1.767-0.445,2.602-0.793c0.849-0.348,1.656-0.779,2.407-1.28c0.765-0.515,1.475-1.099,2.115-1.74
			c0.64-0.64,1.225-1.35,1.726-2.115c0.501-0.751,0.932-1.559,1.28-2.393c0.348-0.849,0.612-1.726,0.793-2.602
			c0.181-0.904,0.278-1.823,0.278-2.727C486.775,50.354,486.678,49.435,486.496,48.544z"/>
	</g>
</g>
<g>
</g>
<g>
</g>
<g>
</g>
<g>
</g>
<g>
</g>
<g>
</g>
<g>
</g>
<g>
</g>
<g>
</g>
<g>
</g>
<g>
</g>
<g>
</g>
<g>
</g>
<g>
</g>
<g>
</g>
</svg>
